<?xml version="1.0" standalone="no"?>
<!DOCTYPE svg PUBLIC "-//W3C//DTD SVG 20010904//EN"
 "http://www.w3.org/TR/2001/REC-SVG-20010904/DTD/svg10.dtd">
<svg version="1.0" xmlns="http://www.w3.org/2000/svg"
 width="1024.000000pt" height="709.000000pt" viewBox="0 0 1024.000000 709.000000"
 preserveAspectRatio="xMidYMid meet">

<g transform="translate(0.000000,709.000000) scale(0.100000,-0.100000)"
fill="#000000" stroke="none">
<path d="M5107 6886 l-117 -203 -242 -7 c-134 -4 -243 -8 -244 -9 -1 -1 -53
-92 -117 -202 l-115 -200 -237 -7 c-130 -3 -238 -8 -240 -10 -1 -2 -55 -94
-120 -205 l-117 -203 -93 0 c-50 0 -152 3 -227 6 l-134 7 -112 197 -113 197
-97 6 c-53 4 -162 7 -242 7 l-145 0 -115 203 -116 202 -249 2 -250 3 -118
-205 -118 -205 -147 0 c-81 0 -190 -3 -242 -6 l-95 -7 -119 -203 c-64 -112
-116 -209 -114 -217 2 -7 55 -104 118 -214 l114 -201 44 -6 c25 -3 134 -6 243
-6 l198 0 112 -197 c62 -109 112 -203 112 -209 0 -7 -211 -378 -226 -396 -1
-1 -107 -5 -236 -8 l-233 -5 -117 -202 -116 -202 -160 -1 c-88 0 -197 -3 -242
-7 l-83 -6 -99 -171 c-54 -94 -108 -189 -119 -211 l-20 -40 121 -212 121 -213
237 0 238 0 110 -194 c61 -106 111 -198 111 -204 0 -6 -50 -98 -110 -204 -61
-106 -110 -199 -110 -206 0 -18 28 -73 137 -264 l95 -168 237 0 237 0 118
-205 118 -205 -120 -206 -120 -207 122 -211 122 -211 240 -3 239 -3 115 -204
115 -204 251 -1 251 0 119 203 119 202 110 3 c61 1 164 -1 230 -5 l119 -8 112
-195 111 -195 240 -3 239 -2 120 -210 119 -210 246 0 246 0 122 210 123 210
237 0 237 0 118 205 118 205 227 0 226 0 116 -202 115 -203 240 -3 239 -2 120
-210 119 -210 247 0 246 0 122 210 123 210 237 0 237 0 114 197 c62 108 115
206 117 217 3 13 -38 95 -107 216 -61 107 -115 199 -120 204 -5 5 -116 12
-246 15 l-237 6 -114 200 c-62 110 -113 205 -113 212 0 7 50 98 111 203 l111
190 237 0 237 0 123 210 123 210 236 2 236 3 114 195 c62 107 117 199 121 203
5 5 114 8 242 7 l234 -1 121 208 121 208 -30 60 c-16 33 -70 131 -119 218
l-89 157 -237 0 -237 0 -120 208 -120 207 -249 0 -248 0 -121 -207 -120 -208
-146 1 c-80 1 -184 4 -230 7 l-83 7 -120 208 -120 207 -237 0 -237 0 -112 196
-111 195 115 200 116 199 248 0 248 0 121 211 122 210 -118 207 c-93 161 -124
208 -143 213 -14 4 -127 7 -251 8 l-226 1 -115 -197 -114 -198 -244 0 -243 0
-114 199 -114 199 96 166 c52 91 106 184 119 206 l24 40 -122 212 -121 212
-240 3 -239 3 -119 208 -118 207 -247 0 -247 0 -118 -204z m709 -20 l113 -199
-20 -40 c-35 -68 -191 -331 -208 -351 -15 -18 -28 -18 -241 -12 -124 4 -225 8
-226 9 -70 118 -217 383 -217 391 0 6 51 100 114 209 l113 197 230 -2 229 -3
113 -199z m-3729 -226 l62 0 111 -196 c86 -150 110 -200 104 -214 -5 -10 -56
-99 -114 -198 l-105 -180 -70 -7 c-38 -4 -141 -5 -228 -3 -155 3 -159 3 -177
28 -33 44 -210 365 -210 381 0 6 50 99 112 206 l112 196 171 -6 c93 -4 198 -7
232 -7z m3009 -182 c60 -105 110 -197 112 -204 2 -7 -48 -101 -110 -208 l-113
-196 -229 2 -230 3 -113 195 c-62 107 -113 199 -113 203 0 4 51 95 112 202
l113 195 230 0 231 0 110 -192z m1428 2 c59 -104 110 -198 112 -207 2 -10 -44
-101 -109 -213 l-113 -195 -214 4 c-118 2 -225 7 -236 12 -20 7 -140 201 -209
338 l-27 53 104 180 c56 98 111 188 121 199 17 18 33 19 240 19 l222 0 109
-190z m-3662 -238 c19 -19 208 -369 208 -386 0 -10 -51 -106 -112 -212 l-113
-194 -225 0 -225 0 -107 188 c-59 103 -110 194 -113 202 -5 14 29 77 174 325
l53 91 226 -4 c125 -2 230 -7 234 -10z m-1373 -96 c90 -155 163 -294 159 -303
-3 -5 -53 -95 -113 -200 l-109 -193 -230 0 -231 0 -112 198 c-62 109 -113 202
-113 206 0 5 51 96 113 202 l112 194 231 0 232 0 61 -104z m2896 -89 c61 -105
110 -199 110 -208 0 -10 -49 -103 -110 -209 l-110 -192 -110 6 c-60 3 -165 6
-232 6 l-122 0 -111 195 c-75 131 -110 201 -105 213 3 9 54 99 113 199 l107
183 230 0 230 0 110 -193z m1427 -2 c60 -104 108 -197 108 -205 0 -9 -50 -102
-111 -208 l-111 -192 -227 0 -227 0 -76 133 c-114 199 -148 263 -148 275 0 11
192 353 213 380 7 9 64 12 241 10 l231 -3 107 -190z m-3563 -409 c61 -107 111
-203 111 -212 0 -10 -48 -102 -107 -206 l-108 -188 -236 0 -235 0 -109 192
c-60 105 -108 196 -108 202 0 6 51 100 113 209 l114 197 228 0 227 0 110 -194z
m1429 -9 l113 -199 -114 -196 -114 -197 -229 -2 -229 -3 -113 199 -113 198
118 202 117 201 225 -2 225 -3 114 -198z m1241 194 l74 -6 108 -190 c60 -104
109 -197 108 -205 0 -8 -49 -98 -108 -200 l-109 -185 -234 -3 -233 -2 -24 42
c-99 173 -191 345 -191 357 0 8 50 101 111 208 l111 193 157 -1 c86 -1 189 -4
230 -8z m1507 -14 c12 -13 212 -360 216 -375 2 -5 -49 -100 -112 -211 l-115
-200 -156 -1 c-86 0 -190 3 -232 6 l-76 7 -95 166 c-51 91 -101 181 -111 199
l-16 33 112 194 112 194 41 4 c81 9 421 -4 432 -16z m1552 -197 l113 -199
-116 -201 -117 -200 -231 0 -232 0 -97 173 c-53 94 -104 187 -113 205 l-16 33
113 194 113 195 235 0 235 -1 113 -199z m-5116 -224 c4 -6 55 -95 114 -199
l107 -187 -104 -182 c-57 -100 -111 -190 -120 -201 -15 -19 -25 -19 -240 -12
l-225 7 -112 197 c-62 108 -112 200 -112 204 0 4 13 28 29 54 15 27 67 114
115 194 l86 147 228 -5 c150 -4 229 -10 234 -17z m1527 -173 c62 -108 110
-202 109 -209 -2 -6 -52 -97 -113 -203 l-110 -191 -227 0 -227 0 -117 205
-116 206 113 194 114 195 231 0 232 0 111 -197z m1420 11 c57 -102 106 -196
108 -208 4 -16 -28 -80 -105 -212 l-110 -189 -229 -3 -229 -2 -106 187 c-59
104 -110 196 -113 205 -5 12 29 81 105 213 l112 195 232 0 231 0 104 -186z
m1433 -7 c59 -104 108 -197 108 -209 0 -17 -123 -243 -197 -360 l-23 -38 -233
0 -232 1 -113 198 -112 199 116 201 117 201 230 -2 230 -3 109 -188z m-5025
-352 c95 -168 143 -261 143 -279 0 -18 -208 -378 -224 -388 -14 -9 -242 -10
-364 -2 l-91 7 -111 193 c-60 107 -110 199 -110 205 0 10 154 281 206 362 l25
37 226 -2 226 -3 74 -130z m1187 125 l161 0 19 -33 c10 -17 61 -107 113 -199
l94 -167 -114 -198 -115 -198 -227 0 -227 0 -113 198 -113 198 47 82 c26 45
80 138 121 206 l73 124 60 -7 c33 -3 132 -6 221 -6z m1588 -7 c26 -30 218
-376 218 -393 0 -8 -48 -99 -107 -202 l-108 -188 -235 0 -235 0 -107 193 c-60
107 -108 199 -108 206 0 7 50 100 112 207 l112 194 222 0 c198 0 222 -2 236
-17z m1530 -177 c59 -103 108 -196 108 -205 0 -18 -49 -110 -151 -282 l-70
-119 -228 0 -229 0 -110 197 c-110 196 -111 197 -95 227 8 17 58 106 110 198
l95 167 61 4 c34 2 138 3 232 3 l169 -1 108 -189z m-3554 -424 c62 -108 113
-201 113 -207 0 -5 -50 -97 -112 -203 l-111 -192 -231 2 -231 3 -113 195 c-62
108 -110 202 -107 210 15 44 220 380 233 383 9 3 113 5 231 6 l215 1 113 -198z
m1421 3 c61 -107 111 -200 111 -205 0 -6 -51 -99 -112 -206 l-113 -194 -229 2
-229 3 -108 190 c-60 105 -109 195 -109 200 0 9 176 321 216 383 14 22 17 22
238 22 l223 0 112 -195z m1422 0 c60 -104 109 -194 109 -200 -1 -5 -51 -98
-113 -205 l-112 -195 -226 -3 -226 -2 -112 193 c-61 107 -111 199 -111 204 0
9 164 297 216 381 15 22 15 22 241 20 l226 -3 108 -190z m1416 18 c56 -98 106
-188 113 -201 10 -21 0 -43 -103 -220 l-114 -197 -230 -3 -229 -2 -96 167
c-53 93 -103 183 -112 201 l-17 32 107 188 c59 103 111 193 117 200 7 9 67 12
237 12 l227 0 100 -177z m-5678 -34 l114 -201 -22 -39 c-12 -21 -64 -110 -114
-196 l-93 -158 -229 0 -230 0 -112 195 c-62 107 -113 199 -113 204 0 5 50 96
112 203 l112 193 230 0 231 0 114 -201z m4757 -205 l111 -7 96 -171 c53 -94
101 -183 108 -198 11 -26 6 -38 -73 -175 -138 -238 -139 -241 -173 -246 -16
-2 -118 -2 -226 1 l-196 5 -112 194 c-62 107 -111 198 -109 202 2 4 55 96 118
204 l115 197 115 0 c63 0 165 -3 226 -6z m-5598 -12 c17 -5 51 -56 127 -192
58 -101 105 -192 105 -201 0 -16 -202 -375 -223 -396 -9 -9 -69 -10 -236 -5
l-225 7 -49 85 c-111 190 -167 295 -167 312 0 16 38 85 167 306 l54 92 212 -1
c117 -1 222 -4 235 -7z m1336 -1 l108 -6 55 -95 c30 -52 79 -140 108 -195 l54
-100 -113 -195 -113 -195 -227 -5 -227 -5 -51 90 c-125 219 -168 298 -168 313
0 8 50 102 111 209 l111 193 122 -1 c66 -1 170 -4 230 -8z m1611 -148 c50 -86
102 -177 116 -202 l27 -46 -117 -200 -117 -200 -219 4 c-121 1 -226 6 -233 10
-7 4 -63 95 -123 201 l-109 193 61 106 c34 58 86 148 116 199 l54 92 227 0
227 0 90 -157z m1443 -28 c57 -101 106 -193 109 -204 3 -14 -31 -83 -108 -217
l-113 -197 -225 7 c-192 6 -228 9 -238 23 -7 9 -59 98 -115 197 l-102 179 40
76 c22 42 73 131 112 199 l73 122 232 0 232 0 103 -185z m2765 148 c80 -129
198 -356 193 -371 -4 -9 -55 -102 -114 -206 l-107 -188 -149 6 c-82 3 -186 6
-232 6 l-83 0 -110 194 c-61 106 -111 197 -111 202 0 4 51 95 113 201 l112
193 232 0 233 0 23 -37z m1522 -164 l112 -196 -114 -196 -115 -197 -82 0 c-46
0 -150 -3 -232 -6 l-149 -6 -92 163 c-50 90 -101 183 -113 207 l-21 43 82 142
c45 78 97 166 116 195 l33 52 231 -2 232 -3 112 -196z m-8098 -216 l151 -6
111 -195 111 -196 -36 -65 c-99 -180 -189 -324 -210 -333 -15 -7 -95 -8 -236
-3 l-213 7 -97 172 c-53 94 -102 183 -109 198 -13 29 -14 26 153 311 l69 117
78 0 c43 0 146 -3 228 -7z m1472 -2 l103 -6 110 -192 c99 -173 109 -193 98
-215 -7 -12 -57 -103 -113 -200 l-101 -178 -231 0 -232 0 -91 163 c-50 89 -98
179 -108 199 l-17 37 93 163 c51 90 104 180 117 201 l23 37 123 -1 c67 -1 169
-4 226 -8z m1624 -178 c58 -104 109 -196 112 -205 5 -12 -29 -80 -105 -210
-61 -106 -115 -196 -119 -200 -3 -4 -108 -4 -231 0 l-225 7 -80 142 c-44 78
-93 166 -109 196 l-30 54 49 84 c26 46 79 137 117 202 l69 117 223 0 222 0
107 -187z m1323 164 c6 -7 59 -96 118 -199 l106 -188 -112 -195 -113 -195
-232 0 -232 0 -95 168 c-52 92 -102 183 -111 202 l-17 36 114 198 113 198 225
-6 c156 -5 228 -11 236 -19z m1532 -180 l114 -198 -47 -82 c-26 -45 -79 -135
-117 -200 l-69 -117 -226 2 -227 3 -29 50 c-16 28 -68 117 -114 200 l-85 150
17 35 c9 19 60 108 112 198 l95 162 231 -2 231 -3 114 -198z m1179 196 l141
-6 103 -179 c56 -99 104 -190 106 -201 3 -15 -33 -87 -105 -212 l-108 -190
-234 0 -233 0 -108 190 c-60 105 -109 196 -109 204 0 15 19 50 142 264 l80
137 91 0 c51 0 156 -3 234 -7z m1679 -197 l114 -200 -37 -65 c-20 -36 -71
-124 -112 -196 l-76 -130 -236 -3 -235 -2 -112 199 -113 199 118 201 117 201
229 -2 229 -3 114 -199z m-7839 -416 c62 -107 112 -199 112 -205 0 -5 -50 -95
-112 -200 l-112 -190 -231 -3 -230 -2 -109 191 c-61 106 -112 196 -114 201 -3
9 24 57 161 291 l69 117 226 -2 227 -3 113 -195z m1424 3 c62 -108 112 -201
112 -207 0 -6 -51 -98 -112 -203 l-113 -193 -228 0 -228 0 -85 148 c-96 167
-137 246 -137 263 0 15 209 372 223 381 7 4 112 8 234 8 l222 0 112 -197z
m1416 12 c57 -99 106 -190 109 -202 4 -15 -21 -68 -92 -190 -53 -92 -106 -180
-116 -196 l-20 -27 -221 2 -222 3 -112 195 c-62 107 -112 197 -113 201 0 5
183 323 216 377 15 22 15 22 242 20 l226 -3 103 -180z m1430 -17 l112 -196
-116 -201 -117 -201 -226 0 -225 1 -112 198 c-62 109 -113 201 -113 205 0 3
13 27 29 53 16 27 68 114 115 196 l87 147 227 -2 226 -3 113 -197z m1383 80
c39 -68 89 -159 112 -203 l41 -80 -114 -198 -113 -197 -230 2 -230 3 -113 195
c-61 107 -112 199 -112 203 -1 4 50 95 112 202 l112 195 232 0 232 0 71 -122z
m1466 -70 c60 -105 110 -199 111 -207 2 -9 -48 -101 -110 -206 l-112 -190
-231 -3 -230 -2 -113 199 -112 200 17 33 c9 18 59 108 111 201 l95 167 232 0
232 0 110 -192z m-3664 -241 c5 -6 55 -95 113 -196 l104 -184 -16 -31 c-9 -17
-60 -109 -115 -203 l-100 -173 -223 0 -224 0 -115 203 c-64 111 -116 207 -116
212 0 6 49 93 109 195 79 135 115 187 132 192 40 13 442 -1 451 -15z m1521
-166 c59 -103 107 -196 107 -205 0 -22 -13 -48 -128 -248 l-95 -168 -221 7
c-122 3 -224 8 -228 12 -15 13 -218 377 -218 390 0 8 50 101 111 207 l112 194
226 0 226 0 108 -189z m-5706 16 c102 -182 123 -221 123 -236 0 -6 -51 -99
-112 -206 -111 -193 -114 -196 -142 -191 -16 3 -119 6 -230 6 l-202 0 -106
188 c-59 103 -108 195 -110 204 -1 10 47 103 107 208 l110 189 235 1 235 0 92
-163z m1442 -32 c61 -107 111 -200 111 -206 0 -10 -204 -366 -218 -381 -4 -4
-110 -8 -237 -9 l-230 -2 -112 194 c-62 107 -112 197 -112 200 -1 6 173 308
215 377 14 22 17 22 243 22 l228 0 112 -195z m1429 -9 c62 -110 111 -202 110
-206 -2 -4 -52 -93 -113 -198 l-110 -191 -210 0 c-115 1 -221 4 -234 8 -18 5
-50 52 -132 196 -60 105 -109 194 -109 199 0 5 51 96 112 202 l113 194 230 -2
230 -3 113 -199z m4271 4 l113 -199 -117 -201 -117 -200 -227 0 -227 0 -108
190 c-60 105 -110 199 -113 209 -3 12 34 86 98 198 56 98 106 184 112 191 7 9
67 12 241 12 l231 0 114 -200z m-939 -210 l108 0 100 -177 c56 -98 106 -190
112 -204 11 -25 5 -40 -85 -195 -54 -93 -107 -181 -117 -196 l-19 -28 -152 1
c-84 1 -186 4 -227 8 l-75 6 -107 189 c-60 105 -108 197 -108 206 0 8 50 103
112 209 l111 194 120 -7 c66 -3 168 -6 227 -6z m-5606 -9 c24 -5 40 -26 103
-136 41 -71 91 -160 110 -197 l35 -68 -114 -195 -113 -195 -234 3 -234 2 -108
190 c-60 105 -109 196 -109 203 0 7 50 101 112 208 l112 194 206 -1 c113 -1
218 -4 234 -8z m1564 -195 l112 -199 -114 -196 -114 -196 -230 -3 -230 -2
-100 177 c-55 98 -106 190 -112 204 -11 24 -3 41 101 223 l113 196 230 -2 231
-3 113 -199z m1413 9 c60 -104 109 -198 109 -207 0 -16 -37 -85 -167 -306
l-54 -92 -227 2 -227 3 -36 60 c-67 111 -170 300 -175 322 -5 17 22 71 101
208 59 102 114 189 123 195 10 6 104 9 231 7 l214 -2 108 -190z m1426 -5 c62
-107 113 -201 113 -208 0 -7 -50 -98 -111 -203 l-111 -189 -231 2 -231 3 -63
108 c-34 59 -85 149 -112 200 l-50 92 61 105 c33 58 85 147 115 198 l54 92
227 -2 227 -3 112 -195z m-3556 -417 c62 -108 112 -201 112 -207 0 -6 -51 -98
-112 -203 l-113 -193 -82 0 c-46 0 -150 3 -233 6 l-150 7 -111 195 -112 194
46 82 c26 44 78 134 116 199 l69 117 229 0 229 0 112 -197z m1325 180 c6 -10
57 -100 113 -200 l103 -181 -114 -195 -113 -195 -140 -7 c-77 -3 -180 -5 -230
-3 l-89 3 -41 70 c-23 39 -74 128 -113 198 l-72 128 16 32 c9 18 59 107 112
200 l97 167 230 0 c208 0 231 -2 241 -17z m1502 -140 c49 -87 99 -177 111
-201 l22 -42 -114 -198 -114 -197 -226 -3 -225 -2 -60 102 c-33 57 -84 148
-113 204 l-53 100 109 190 c59 104 113 192 119 196 6 4 111 8 233 8 l222 0 89
-157z m1441 -38 c61 -107 112 -199 113 -204 2 -5 -46 -95 -107 -200 l-110
-191 -235 3 -235 2 -72 125 c-40 69 -89 157 -110 195 l-36 71 113 197 112 197
228 0 227 0 112 -195z m-4983 -407 c60 -105 110 -198 112 -205 2 -8 -47 -101
-109 -208 l-114 -195 -232 0 -232 0 -89 158 c-50 86 -100 178 -112 203 l-23
46 114 196 114 197 231 0 230 0 110 -192z m1198 182 l121 0 108 -189 c59 -103
107 -194 107 -201 0 -7 -50 -100 -112 -207 l-112 -193 -229 2 -229 3 -55 95
c-30 52 -80 141 -110 197 l-55 103 93 162 c51 90 104 181 117 202 l24 39 106
-7 c58 -3 160 -6 226 -6z m1472 0 l71 0 113 -196 c83 -147 110 -201 103 -214
-4 -10 -55 -99 -113 -199 l-105 -181 -231 0 -231 0 -112 196 c-66 116 -110
202 -106 211 3 9 29 57 59 107 29 50 79 136 111 190 l58 99 156 -6 c86 -4 188
-7 227 -7z m1592 -167 c55 -98 106 -190 112 -204 11 -25 4 -41 -101 -223
l-113 -196 -229 2 -229 3 -109 188 c-60 104 -109 195 -109 203 0 20 17 53 123
236 83 143 94 157 122 161 16 2 121 5 232 5 l201 2 100 -177z m1333 161 c7 -4
171 -288 203 -352 9 -18 15 -36 13 -40 -2 -4 -52 -94 -113 -199 l-109 -193
-232 0 -232 0 -89 158 c-49 86 -99 175 -110 197 l-20 40 28 56 c26 51 153 274
187 327 l15 24 226 -7 c125 -4 230 -9 233 -11z m-4875 -607 l115 -198 -115
-197 -114 -197 -234 -3 -233 -2 -114 200 -113 200 82 142 c45 79 98 169 117
201 l35 57 230 -2 230 -3 114 -198z m1419 7 c61 -108 109 -201 107 -208 -2 -6
-54 -98 -115 -203 l-111 -193 -210 0 c-116 0 -220 3 -231 6 -14 3 -56 66 -128
192 -59 103 -107 191 -107 196 0 4 51 98 113 207 l112 198 230 1 230 0 110
-196z m1413 19 c55 -98 106 -190 113 -205 11 -25 5 -39 -99 -220 l-110 -193
-233 0 -233 0 -113 195 c-62 107 -112 198 -113 201 0 6 175 310 216 377 14 22
17 22 243 22 l229 0 100 -177z m1430 -8 c56 -99 105 -189 108 -201 4 -15 -28
-80 -107 -218 l-113 -196 -230 2 -231 3 -107 189 c-60 105 -108 199 -108 209
0 11 8 34 19 51 10 17 60 102 111 189 l92 157 232 -2 231 -3 103 -180z m1439
-17 l113 -198 -116 -200 -116 -200 -232 0 -231 1 -72 127 c-39 70 -89 161
-112 202 l-40 75 100 175 c56 96 107 185 115 198 15 22 15 22 246 20 l232 -3
113 -197z m-3723 -214 l46 -7 110 -192 c61 -106 110 -196 110 -199 0 -4 -52
-97 -116 -207 l-116 -200 -202 6 c-110 3 -215 8 -233 11 -29 4 -39 18 -128
174 -53 93 -101 182 -107 198 -10 26 -2 43 103 225 l114 197 186 0 c102 0 207
-3 233 -6z m2744 -1 l151 -6 111 -195 c83 -145 110 -199 103 -212 -4 -10 -55
-99 -113 -197 l-104 -180 -226 -6 c-203 -5 -227 -4 -242 11 -22 23 -218 372
-218 390 0 7 51 100 113 207 l112 195 81 0 c44 0 149 -3 232 -7z"/>
</g>
</svg>
