<?xml version="1.0" standalone="no"?>
<!DOCTYPE svg PUBLIC "-//W3C//DTD SVG 20010904//EN"
 "http://www.w3.org/TR/2001/REC-SVG-20010904/DTD/svg10.dtd">
<svg version="1.0" xmlns="http://www.w3.org/2000/svg"
 width="1520.000000pt" height="226.000000pt" viewBox="0 0 1520.000000 226.000000"
 preserveAspectRatio="xMidYMid meet">

<g transform="translate(0.000000,226.000000) scale(0.100000,-0.100000)"
fill="#000000" stroke="none">
<path d="M1561 1890 l-214 -369 -442 6 -441 6 -228 -391 c-125 -216 -230 -400
-232 -410 -3 -10 79 -162 199 -372 198 -345 205 -355 237 -358 l33 -3 -21 33
c-63 104 -392 687 -392 694 0 5 96 173 213 374 l212 365 435 2 435 3 213 -374
213 -374 -196 -338 c-109 -187 -204 -349 -212 -362 -14 -23 -14 -23 22 -20
l37 3 198 340 198 340 432 0 433 0 196 -342 c195 -342 195 -343 228 -343 l33
0 -30 53 c-17 28 -110 190 -206 359 l-176 308 218 375 219 375 422 0 422 0
211 -370 c136 -238 210 -376 206 -387 -4 -9 -96 -170 -206 -359 -110 -189
-200 -345 -200 -348 0 -4 17 -6 39 -6 l39 0 203 350 204 350 420 -3 420 -2
197 -345 c189 -330 199 -345 229 -348 24 -3 30 0 26 11 -3 8 -96 173 -206 366
l-201 350 218 373 217 373 53 0 c28 -1 220 -2 426 -3 l373 -2 213 -372 c117
-205 213 -378 213 -383 0 -6 -88 -163 -197 -349 -109 -186 -200 -345 -203
-353 -4 -11 2 -14 28 -11 32 3 38 11 234 348 l201 345 127 0 c70 0 261 -2 425
-3 l297 -3 195 -344 195 -344 38 -1 c36 0 37 1 26 23 -7 12 -102 178 -211 370
l-200 347 214 368 213 367 430 3 431 2 213 -372 c117 -205 213 -377 213 -381
0 -5 -92 -168 -206 -362 -113 -195 -206 -356 -206 -359 0 -3 13 -6 29 -6 27 0
39 18 232 350 l204 350 424 -3 424 -2 198 -345 198 -345 42 -3 41 -3 -20 33
c-41 67 -391 683 -394 693 -2 6 96 180 216 388 l219 377 306 -1 c168 -1 357
-4 420 -8 l114 -6 208 -365 c115 -201 209 -368 209 -372 0 -3 -94 -169 -210
-367 -116 -198 -210 -363 -210 -367 0 -3 15 -4 32 -2 32 3 40 15 238 355 l205
353 429 -3 429 -2 200 -350 c110 -192 201 -351 202 -353 2 -2 17 -2 33 0 l30
3 -209 364 c-181 317 -207 367 -197 385 35 67 413 713 423 725 11 11 86 12
439 6 l426 -8 210 -367 c116 -202 210 -372 210 -377 0 -6 -84 -154 -186 -329
-102 -175 -196 -338 -210 -361 l-25 -43 33 0 c33 0 34 3 233 346 117 203 207
348 218 351 21 7 24 63 3 63 -8 0 -110 168 -238 390 l-223 390 -445 0 -445 0
-205 360 c-194 339 -207 359 -234 360 -20 0 -27 -4 -23 -14 3 -7 96 -172 206
-364 110 -193 202 -355 203 -360 2 -4 -96 -178 -217 -386 l-220 -378 -425 7
c-358 6 -427 9 -437 22 -6 8 -102 174 -213 368 l-201 353 215 371 c119 203
216 373 216 376 0 3 -16 5 -37 3 l-36 -3 -207 -355 -206 -355 -421 -3 -422 -2
-196 344 c-109 190 -202 352 -209 361 -8 11 -23 15 -44 13 l-32 -3 210 -367
210 -368 -222 -380 -221 -380 -417 0 -417 0 -212 370 c-116 203 -211 373 -211
378 0 6 93 169 206 363 113 195 210 362 215 372 8 15 5 17 -24 17 -33 0 -33 0
-243 -360 l-209 -360 -430 0 -430 1 -205 359 c-205 360 -205 360 -238 360
l-34 0 20 -32 c11 -18 108 -187 215 -375 l195 -342 -217 -373 -217 -373 -424
0 -425 0 -212 370 c-181 317 -210 372 -201 390 14 26 396 683 414 713 14 22
14 22 -28 22 l-43 0 -211 -362 -211 -363 -419 -3 -419 -2 -209 365 -210 365
-100 -2 c-87 -2 -91 -2 -30 -5 l72 -4 211 -370 c117 -204 211 -377 209 -384
-2 -6 -97 -175 -213 -374 l-210 -361 -429 3 -428 2 -205 355 c-112 195 -209
365 -215 376 -9 18 19 71 193 370 111 192 209 359 217 372 14 21 13 22 -21 22
l-35 0 -213 -366 -213 -367 -75 7 c-41 3 -230 6 -421 6 l-347 0 -204 358 -205
357 -489 2 -490 3 -214 -370z m1340 -23 l217 -378 -216 -370 -215 -369 -430 2
-430 3 -214 375 c-157 275 -212 379 -206 390 5 8 103 176 217 373 l208 357
427 -2 426 -3 216 -378z"/>
<path d="M2065 1861 c-219 -99 -188 -514 42 -557 50 -9 114 19 163 72 52 57
73 105 73 171 0 55 -20 143 -33 143 -4 0 -6 -29 -5 -65 2 -39 0 -63 -6 -60 -5
4 -9 16 -9 28 0 12 -5 29 -10 37 -7 11 -10 -3 -10 -45 -1 -97 -55 -183 -126
-201 -54 -14 -124 42 -144 114 -13 48 -13 127 1 175 16 58 69 137 97 144 18 4
20 8 10 14 -11 7 -11 9 0 9 13 0 42 24 42 34 0 12 -46 5 -85 -13z"/>
<path d="M12887 1860 c-14 -11 -30 -20 -35 -20 -6 0 -9 -12 -7 -27 2 -21 7
-27 21 -25 69 12 86 13 119 2 81 -27 135 -108 119 -177 -17 -72 -61 -110 -147
-128 -23 -5 -26 -9 -18 -19 9 -11 6 -15 -11 -19 -12 -4 -25 -4 -28 -1 -3 3 -6
60 -8 127 -4 136 -13 167 -55 192 l-28 17 5 -119 c3 -65 9 -193 12 -285 3 -93
10 -168 15 -168 5 0 9 7 9 15 0 8 4 15 9 15 5 0 12 8 14 18 3 12 5 9 6 -8 2
-24 2 -25 17 -5 12 16 13 37 8 105 l-6 85 111 -115 c107 -112 119 -119 112
-63 -1 8 5 10 14 7 33 -13 12 23 -51 87 l-65 66 40 17 c78 36 121 106 121 198
-1 126 -91 224 -222 241 -37 5 -51 2 -71 -13z m128 -410 c-3 -5 -11 -10 -16
-10 -6 0 -7 5 -4 10 3 6 11 10 16 10 6 0 7 -4 4 -10z"/>
<path d="M10305 1858 c-27 -5 -66 -11 -85 -13 -79 -9 -125 -19 -149 -32 -14
-7 -23 -13 -19 -13 4 0 3 -11 -2 -24 l-9 -24 75 5 74 6 1 -159 c1 -87 4 -204
8 -259 6 -99 6 -100 21 -67 17 37 30 42 30 10 0 -22 0 -22 13 -3 10 16 11 68
3 248 -7 184 -6 231 4 237 7 4 42 11 78 15 84 9 95 13 79 29 -7 7 -19 15 -27
19 -11 4 -10 6 4 6 15 1 16 4 6 16 -14 17 -31 17 -105 3z"/>
<path d="M4711 1558 c1 -167 3 -295 6 -285 2 9 8 17 13 17 4 0 11 10 15 23 l7
22 7 -24 c6 -22 8 -22 20 -7 11 13 12 39 7 120 -6 95 -5 104 14 121 12 11 24
15 29 9 11 -11 94 -176 115 -228 13 -32 18 -36 31 -26 8 7 12 16 9 21 -3 5 0
9 5 9 6 0 11 -5 11 -12 0 -9 3 -9 12 0 8 8 9 21 1 45 -15 51 -122 237 -136
237 -7 1 33 43 87 94 l99 93 -36 -3 c-28 -2 -35 0 -30 11 14 39 -36 7 -122
-76 l-95 -92 0 77 c0 43 -5 86 -12 98 -14 24 -45 58 -53 58 -3 0 -4 -136 -4
-302z"/>
<path d="M7446 1645 c3 -105 7 -213 10 -240 9 -95 78 -175 151 -175 34 0 106
31 118 50 11 17 25 11 25 -12 0 -21 0 -21 21 -2 16 14 22 15 28 5 6 -9 11 -10
15 -3 10 17 -6 482 -16 476 -5 -4 -7 -17 -4 -30 4 -14 2 -24 -4 -24 -5 0 -10
-18 -10 -40 0 -54 -20 -51 -21 3 -1 39 -1 40 -9 14 -5 -16 -13 -75 -19 -133
-6 -57 -17 -120 -25 -139 -41 -96 -136 -115 -166 -33 -7 18 -16 101 -20 183
-10 167 -16 211 -36 234 -8 9 -20 25 -28 36 -12 17 -14 -4 -10 -170z"/>
<path d="M777 1090 c-14 -11 -30 -20 -35 -20 -6 0 -9 -12 -7 -27 2 -21 7 -27
21 -25 69 12 86 13 119 2 81 -27 135 -108 119 -177 -17 -72 -61 -110 -147
-128 -23 -5 -26 -9 -18 -19 9 -11 6 -15 -11 -19 -12 -4 -25 -4 -28 -1 -3 3 -6
60 -8 127 -4 136 -13 167 -55 192 l-28 17 5 -119 c3 -65 9 -193 12 -285 3 -93
10 -168 15 -168 5 0 9 7 9 15 0 8 4 15 9 15 5 0 12 8 14 17 3 13 5 10 6 -7 2
-24 2 -25 17 -5 12 16 13 37 8 105 l-6 85 111 -115 c107 -112 119 -119 112
-63 -1 8 5 10 14 7 33 -13 12 23 -51 87 l-65 66 40 17 c78 36 121 106 121 198
-1 126 -91 224 -222 241 -37 5 -51 2 -71 -13z m128 -410 c-3 -5 -11 -10 -16
-10 -6 0 -7 5 -4 10 3 6 11 10 16 10 6 0 7 -4 4 -10z"/>
<path d="M3492 1097 c-43 -13 -103 -73 -130 -128 -42 -87 -47 -182 -13 -270
15 -40 69 -98 112 -120 46 -23 128 -25 169 -4 34 17 40 30 12 22 -11 -2 -37
-1 -58 3 -30 6 -33 8 -12 9 48 2 40 20 -12 27 -66 9 -110 38 -137 94 -58 113
3 269 119 309 21 7 42 9 48 6 5 -3 10 -2 10 3 0 5 16 9 35 7 43 -2 36 11 -19
36 -45 21 -75 22 -124 6z"/>
<path d="M6146 1098 c-23 -7 -40 -18 -43 -29 -3 -10 -14 -21 -25 -25 -15 -4
-17 -8 -8 -14 7 -4 9 -16 5 -29 -4 -13 -2 -21 6 -21 9 0 10 -43 5 -187 -7
-178 -8 -189 -29 -205 l-22 -17 23 6 c21 5 22 3 22 -68 0 -72 0 -73 19 -52 10
11 21 29 24 39 3 13 5 9 6 -10 1 -28 2 -29 16 -10 8 10 15 29 15 42 0 21 4 22
68 22 90 0 139 15 179 55 28 28 33 40 33 81 0 51 -27 110 -55 120 -13 5 -12
10 2 37 38 74 11 178 -60 231 -60 44 -108 53 -181 34z m101 -78 c6 0 25 -12
42 -26 61 -51 47 -145 -24 -158 -20 -4 -33 -11 -30 -17 4 -5 -1 -9 -9 -9 -9 0
-16 -4 -16 -8 0 -5 -8 -17 -18 -28 -18 -19 -17 -19 49 -19 77 0 122 -24 127
-68 5 -40 -34 -60 -129 -65 l-79 -5 0 177 c0 122 -3 176 -11 176 -6 0 -9 6 -6
14 3 8 1 17 -6 19 -18 7 55 26 78 21 11 -2 25 -4 32 -4z"/>
<path d="M8875 1098 c-75 -16 -129 -88 -128 -171 1 -71 36 -117 141 -184 48
-30 95 -65 104 -77 22 -26 23 -74 3 -102 -18 -27 -75 -54 -111 -54 -21 0 -25
-3 -17 -11 6 -6 35 -12 64 -12 l52 -1 -39 -17 -39 -18 39 0 c73 -2 146 77 146
157 0 83 -41 135 -158 197 -70 38 -112 86 -112 128 0 66 60 109 155 112 59 2
69 14 29 36 -39 22 -81 28 -129 17z"/>
<path d="M11654 1091 c-54 -24 -110 -92 -136 -164 -12 -32 -27 -61 -35 -64 -7
-3 -11 -9 -8 -13 3 -5 1 -11 -5 -15 -17 -11 -11 -35 9 -35 14 0 20 -10 25 -41
18 -114 122 -209 226 -209 37 1 101 33 130 66 l25 29 -27 -24 c-16 -14 -28
-21 -28 -17 0 4 -8 2 -18 -3 -10 -5 -32 -6 -52 -1 -23 5 -27 8 -13 9 42 2 33
20 -14 26 -82 12 -142 66 -155 140 -3 19 3 20 85 23 l89 3 -16 24 c-9 14 -12
25 -7 25 6 0 8 7 4 16 -5 14 -17 16 -80 10 -47 -4 -73 -2 -73 4 0 19 47 105
67 123 32 28 131 59 165 51 43 -9 27 13 -26 37 -52 23 -80 23 -132 0z"/>
<path d="M14385 1098 c-75 -16 -129 -88 -128 -171 1 -71 36 -117 141 -184 48
-30 95 -65 104 -77 22 -26 23 -74 3 -102 -18 -27 -75 -54 -111 -54 -21 0 -25
-3 -17 -11 6 -6 35 -12 64 -12 l52 -1 -39 -17 -39 -18 39 0 c73 -2 146 77 146
157 0 83 -41 135 -158 197 -70 38 -112 86 -112 128 0 66 60 109 155 112 59 2
69 14 29 36 -39 22 -81 28 -129 17z"/>
</g>
</svg>
