<?xml version="1.0" standalone="no"?>
<!DOCTYPE svg PUBLIC "-//W3C//DTD SVG 20010904//EN"
 "http://www.w3.org/TR/2001/REC-SVG-20010904/DTD/svg10.dtd">
<svg version="1.0" xmlns="http://www.w3.org/2000/svg"
 width="887.000000pt" height="901.000000pt" viewBox="0 0 887.000000 901.000000"
 preserveAspectRatio="xMidYMid meet">

<g transform="translate(0.000000,901.000000) scale(0.100000,-0.100000)"
fill="#000000" stroke="none">
<path d="M4160 7509 c-1207 -99 -2271 -934 -2660 -2089 -75 -223 -150 -588
-150 -732 0 -46 -11 -61 -26 -37 -21 35 -180 69 -256 55 -47 -9 -114 -68 -145
-129 -122 -241 -57 -780 142 -1177 104 -208 269 -403 430 -508 88 -58 129 -65
218 -38 l46 14 65 -102 c440 -686 1135 -1173 1926 -1350 587 -131 1196 -89
1760 121 600 223 1121 636 1484 1176 45 67 87 130 92 140 9 16 13 16 53 2 24
-8 66 -15 93 -15 42 0 61 7 121 46 93 60 269 237 337 338 202 303 336 796 302
1114 -24 213 -83 328 -189 363 -59 19 -165 6 -233 -29 l-59 -30 -6 67 c-25
253 -89 540 -169 766 -69 191 -217 484 -334 660 -629 946 -1706 1466 -2842
1374z m685 -179 c826 -122 1560 -585 2020 -1275 551 -828 645 -1882 248 -2795
-380 -874 -1172 -1514 -2103 -1700 -227 -45 -333 -55 -595 -54 -193 0 -270 4
-390 22 -531 78 -1012 284 -1425 612 -125 99 -359 332 -454 450 -328 412 -538
891 -617 1410 -26 175 -36 506 -20 690 106 1200 947 2222 2103 2555 146 42
335 80 473 94 55 6 116 13 135 15 99 12 482 -3 625 -24z m-3619 -2727 c18 -8
50 -30 72 -48 l39 -34 6 -203 c12 -428 107 -821 294 -1217 38 -81 50 -118 43
-125 -6 -6 -39 -11 -73 -11 -104 0 -206 69 -317 217 -174 231 -340 722 -340
1007 0 172 43 333 106 396 47 47 96 53 170 18z m6534 -2 c74 -53 130 -234 130
-416 0 -126 -63 -408 -136 -603 -135 -364 -353 -622 -524 -622 -77 0 -78 5
-21 123 203 423 311 898 311 1367 l0 95 48 33 c82 55 139 62 192 23z"/>
<path d="M4882 7173 c2 -11 16 -20 38 -23 19 -4 55 -18 80 -32 54 -31 90 -40
109 -29 17 11 6 31 -18 31 -10 0 -48 16 -84 35 -73 39 -131 47 -125 18z"/>
<path d="M3765 7173 c-78 -18 -95 -25 -95 -40 0 -13 7 -14 48 -7 26 4 71 8
101 8 60 1 79 20 36 36 -27 10 -55 11 -90 3z"/>
<path d="M4278 7173 c-16 -3 -28 -11 -28 -19 0 -12 15 -14 78 -13 69 2 83 -1
125 -25 26 -16 54 -25 63 -22 22 8 11 21 -50 55 -53 31 -102 37 -188 24z"/>
<path d="M4027 7063 c-17 -16 -6 -63 17 -78 44 -29 166 -20 166 12 0 12 -9 14
-48 8 -59 -8 -99 7 -112 40 -10 27 -13 29 -23 18z"/>
<path d="M4635 7010 c-9 -15 23 -57 55 -70 36 -15 90 -6 122 19 31 26 17 37
-31 23 -56 -17 -75 -15 -101 13 -25 27 -35 30 -45 15z"/>
<path d="M3120 6922 c-64 -42 -107 -89 -93 -103 9 -9 24 -1 60 31 26 23 63 49
81 57 33 14 39 35 11 41 -8 1 -34 -10 -59 -26z"/>
<path d="M5670 6925 c0 -8 4 -15 8 -15 5 0 30 -16 55 -36 34 -26 58 -37 85
-38 47 -1 52 25 5 35 -17 3 -51 20 -74 38 -46 33 -79 40 -79 16z"/>
<path d="M5236 6901 c-7 -11 11 -25 52 -39 19 -7 56 -28 84 -48 38 -29 52 -34
61 -25 15 16 -37 63 -108 97 -53 25 -80 30 -89 15z"/>
<path d="M3540 6874 c-28 -20 -43 -24 -72 -19 -33 5 -38 3 -38 -15 0 -23 36
-36 74 -26 35 9 106 57 106 73 0 20 -31 15 -70 -13z"/>
<path d="M2986 6608 c-2 -7 -12 -44 -21 -83 -18 -75 -46 -129 -71 -139 -9 -3
-26 -3 -39 0 -32 8 -50 -3 -34 -22 15 -19 79 -18 107 2 12 8 31 33 42 54 24
47 53 167 46 186 -7 17 -25 18 -30 2z"/>
<path d="M6052 6533 c2 -10 13 -19 26 -21 12 -2 47 -26 77 -54 40 -37 64 -50
88 -52 41 -1 44 24 3 35 -16 5 -48 26 -70 47 -47 45 -76 62 -106 62 -15 0 -20
-5 -18 -17z"/>
<path d="M2470 6361 c-19 -16 -45 -47 -58 -70 -22 -38 -22 -42 -6 -48 11 -4
19 -1 22 8 3 8 29 38 58 68 50 50 59 71 31 71 -7 0 -28 -13 -47 -29z"/>
<path d="M6700 6039 c0 -6 12 -26 28 -44 15 -17 32 -40 38 -51 9 -14 15 -16
24 -8 9 9 9 17 0 35 -28 54 -90 101 -90 68z"/>
<path d="M2017 5842 c-20 -27 -43 -65 -52 -85 -17 -41 -20 -103 -5 -112 11 -7
11 -6 34 76 10 37 30 72 57 102 38 44 44 67 15 67 -6 0 -28 -22 -49 -48z"/>
<path d="M3740 5364 c-166 -45 -598 -250 -1015 -482 -245 -136 -275 -161 -275
-227 0 -34 40 -85 67 -85 7 0 46 27 86 59 101 83 227 160 402 246 243 119 618
260 868 325 100 26 104 33 56 101 -59 84 -82 92 -189 63z"/>
<path d="M4974 5366 c-29 -21 -84 -108 -84 -132 0 -16 14 -22 89 -36 215 -42
628 -176 881 -285 199 -86 401 -203 454 -262 25 -28 51 -27 81 4 32 31 34 91
4 129 -35 45 -649 345 -966 472 -262 105 -415 142 -459 110z"/>
<path d="M7025 5280 c-3 -5 6 -33 21 -61 14 -29 30 -79 34 -112 9 -62 23 -88
39 -71 16 16 -7 131 -39 194 -29 58 -42 70 -55 50z"/>
<path d="M1767 5111 c-46 -49 -56 -70 -60 -126 -1 -21 3 -30 16 -33 12 -2 17
3 17 20 1 39 36 103 75 135 35 29 40 53 11 53 -7 0 -34 -22 -59 -49z"/>
<path d="M3475 4540 c-32 -12 -95 -87 -118 -139 -62 -141 -6 -353 106 -396 40
-15 46 -15 86 1 106 42 160 228 112 383 -23 74 -58 123 -104 145 -38 18 -52
19 -82 6z"/>
<path d="M5433 4535 c-112 -48 -160 -283 -89 -429 44 -89 114 -130 178 -102
108 46 164 216 120 363 -23 74 -73 143 -123 168 -34 18 -45 18 -86 0z"/>
<path d="M4405 4369 c-279 -26 -445 -146 -446 -324 -2 -184 107 -324 251 -325
l55 0 -31 19 c-117 71 -169 250 -110 376 51 111 189 175 374 175 240 0 392
-136 392 -349 0 -119 -61 -206 -180 -258 -81 -36 -84 -38 -94 -66 -8 -21 -1
-43 36 -124 80 -171 122 -335 134 -521 3 -53 7 -114 8 -134 2 -21 2 -38 0 -38
-2 0 -50 -9 -108 -20 -202 -39 -358 -105 -432 -182 -45 -47 -47 -47 73 15 182
93 357 123 581 98 126 -14 157 -28 171 -79 43 -153 -45 -208 -353 -219 -197
-7 -186 -22 22 -30 277 -11 418 41 452 166 31 116 -72 209 -269 243 l-68 12
-7 99 c-17 264 -78 521 -153 639 -12 21 -23 49 -23 62 0 20 6 25 40 31 84 14
236 140 282 234 17 35 23 63 23 116 0 90 -28 149 -109 231 -121 121 -296 174
-511 153z"/>
</g>
</svg>
